<?xml version="1.0" encoding="utf-8"?>
<!-- Generator: Adobe Illustrator 24.0.2, SVG Export Plug-In . SVG Version: 6.00 Build 0)  -->
<svg version="1.1" id="Capa_1" xmlns="http://www.w3.org/2000/svg" xmlns:xlink="http://www.w3.org/1999/xlink" x="0px" y="0px"
	 viewBox="0 0 200.2 246.4" style="enable-background:new 0 0 200.2 246.4;" xml:space="preserve">
<style type="text/css">
	.st0{fill:#FFFFFF;}
</style>
<path class="st0" d="M30.8,113.1L188,8.2c1.2-0.8,2.5-1.2,3.9-1.3c1.4-0.1,2.8,0.2,4,0.9c1.2,0.7,2.3,1.6,3,2.8
	c0.7,1.2,1.1,2.6,1.1,3.9V232c0,1.4-0.4,2.8-1.1,3.9c-0.7,1.2-1.7,2.2-3,2.8c-1.2,0.7-2.6,1-4,0.9c-1.4-0.1-2.7-0.5-3.9-1.3
	L30.8,133.6V231c0,4.1-1.6,8-4.5,10.9c-2.9,2.9-6.8,4.5-10.9,4.5c-4.1,0-8-1.6-10.9-4.5C1.6,239,0,235.1,0,231L0,15.7
	c0-4.1,1.6-8,4.5-10.9c2.9-2.9,6.8-4.5,10.9-4.5c4.1,0,8,1.6,10.9,4.5c2.9,2.9,4.5,6.8,4.5,10.9V113.1z"/>
</svg>
