<?xml version="1.0" encoding="utf-8"?>
<!-- Generator: Adobe Illustrator 24.0.2, SVG Export Plug-In . SVG Version: 6.00 Build 0)  -->
<svg version="1.1" id="Capa_1" xmlns="http://www.w3.org/2000/svg" xmlns:xlink="http://www.w3.org/1999/xlink" x="0px" y="0px"
	 viewBox="0 0 252.1 231.9" style="enable-background:new 0 0 252.1 231.9;" xml:space="preserve">

<g>
	<path class="st0" d="M117.6,32.5l0.2-0.2c3.6-3.2,7.5-6,11.6-8.3v29.5l-11.8,10.5l-15.7-14c-18.4-16.5-46.8-15.9-64.5,1.8
		c-17.6,17.6-18.3,45.6-2.3,64l82.4,82.6l78-78.1h30c-2.4,4.1-5.2,8-8.4,11.7l-99.6,99.7L18,132c-24.7-27.7-23.8-70.2,2.8-96.7
		c26.5-26.5,68.9-27.5,96.6-2.9L117.6,32.5z"/>
	<path class="st0" d="M251.9,35.5h-35.2l0.2-35.2h-23.7v35.2H158V59h35.2l0,35.2h23.5l0-35.2h35.2V35.5z"/>
</g>
</svg>
