<?xml version="1.0" encoding="utf-8"?>
<!-- Generator: Adobe Illustrator 24.0.2, SVG Export Plug-In . SVG Version: 6.00 Build 0)  -->
<svg version="1.1" id="Capa_1" xmlns="http://www.w3.org/2000/svg" xmlns:xlink="http://www.w3.org/1999/xlink" x="0px" y="0px"
	 viewBox="0 0 200.2 246.4" style="enable-background:new 0 0 200.2 246.4;" xml:space="preserve">
<style type="text/css">
	.st0{fill:#FFFFFF;}
</style>
<path class="st0" d="M169.2,133.6L12,238.4c-1.2,0.8-2.5,1.2-3.9,1.3c-1.4,0.1-2.8-0.2-4-0.9c-1.2-0.7-2.3-1.6-3-2.8S0,233.4,0,232
	V14.6c0-1.4,0.4-2.8,1.1-3.9c0.7-1.2,1.7-2.2,3-2.8c1.2-0.7,2.6-1,4-0.9C9.4,7,10.8,7.5,12,8.2l157.2,104.8V15.7
	c0-4.1,1.6-8,4.5-10.9c2.9-2.9,6.8-4.5,10.9-4.5c4.1,0,8,1.6,10.9,4.5c2.9,2.9,4.5,6.8,4.5,10.9l0,215.3c0,4.1-1.6,8-4.5,10.9
	c-2.9,2.9-6.8,4.5-10.9,4.5c-4.1,0-8-1.6-10.9-4.5c-2.9-2.9-4.5-6.8-4.5-10.9V133.6z"/>
</svg>
